<?xml version="1.0" encoding="utf-8"?>
<!-- Generator: Adobe Illustrator 19.0.0, SVG Export Plug-In . SVG Version: 6.00 Build 0)  -->
<svg version="1.1" id="Layer_1" xmlns="http://www.w3.org/2000/svg" xmlns:xlink="http://www.w3.org/1999/xlink" x="0px" y="0px"
	 viewBox="-8 220 593.7 380.7" style="enable-background:new -8 220 593.7 380.7;" xml:space="preserve">
<style type="text/css">
	.st0{fill:none;stroke:#000000;stroke-width:10;stroke-linecap:round;stroke-linejoin:round;stroke-miterlimit:10;}
    .st0{
        stroke-dasharray:3500;
        stroke-dashoffset:3500;
        -webkit-animation-name:dash;
        -webkit-animation-duration:2.5s;
        -webkit-animation-fill-mode:forwards;
        -webkit-animation-timing-function:ease-out;
    
        -moz-animation-name:dash;
        -moz-animation-duration:2.5s;
        -moz-animation-fill-mode:forwards;
        -moz-animation-timing-function:ease-out;
    
        -ms-animation-name:dash;
        -ms-animation-duration:2.5s;
        -ms-animation-fill-mode:forwards;
        -ms-animation-timing-function:ease-out;
    
        -o-animation-name:dash;
        -o-animation-duration:2.5s;
        -o-animation-fill-mode:forwards;
        -o-animation-timing-function:ease-out;
    
        animation-name:dash;
        animation-duration:2.5s;
        animation-fill-mode:forwards;
        animation-timing-function:ease-out;
    }
    
    @-webkit-keyframes dash{
    to{stroke-dashoffset:0;}
    }
    @-moz-keyframes dash{
    to{stroke-dashoffset:0;}
    }
    @-ms-keyframes dash{
    to{stroke-dashoffset:0;}
    }
    @-o-keyframes dash{
    to{stroke-dashoffset:0;}
    }
    @keyframes dash{
    to{stroke-dashoffset:0;}
    }
</style>
<path id="XMLID_2_" class="st0" d="M485.2,558.7h46.5c0,0,55.5-5.5,17-34c-22.5-16.6-185.8-18.6-318-17.4c-2.4,0-4.7,0.1-7,0.1
	c-32,0.3-64,4.3-96.1,3.2c-3.7,0.1-7.3,0.1-10.8,0.2c-17.8,0.5-35.5,0.7-53,0.6c-3.3-0.2-6.5-0.5-9.7-1.1
	c-9.5-1.6-18.5-4.9-26.4-11.7c-7-6-7-17-5.8-26.6c0-2.1,0-4.3,0.1-6.5c0.4-11.5,2.5-25.7,6.7-43.4c25.5-106,60-96,60-96
	s40.5,4,10,120.5c-1.4,5.3-2.4,9.9-3,13.8c-0.6,4-0.9,7.3-0.9,10c-1.1,4.2,1.9,10.2,5.9,9.2c10-1,17-9,23.5-15.9
	c1.5-1.4,2.9-2.9,4.5-4.5c41.3-41.4,108.4-132.8,132-148.2c38.5-25-30.5,104.5-30.5,104.5s-47.5,88.5,65,36.5s72.5,5,72.5,5
	s-33.5,50-39.5,14s2.5-151.5,2.5-151.5s14-66,50.5-3.5s115.5,221,140,152s56-136-9.5-126s-83.5,61-27.5,46s73.5-69,69-90.5
	s-19.5-48-55-52s-476.3-3.3-476.3-3.3H5.5l46.2,10.5v-21.5L5.5,241.7"/>
<g>
	<path d="M156.1,539h2.2v9c0,0.6-0.1,1.2-0.3,1.7s-0.5,0.9-0.9,1.3s-0.8,0.6-1.3,0.8c-0.5,0.2-1.1,0.3-1.7,0.3
		c-0.6,0-1.2-0.1-1.7-0.2s-1-0.4-1.3-0.7s-0.7-0.7-0.9-1.2s-0.3-1-0.3-1.7h2.2c0,0.4,0,0.7,0.1,0.9c0.1,0.3,0.2,0.5,0.4,0.6
		c0.2,0.2,0.4,0.3,0.6,0.4s0.5,0.1,0.8,0.1c0.3,0,0.6,0,0.8-0.1c0.2-0.1,0.4-0.2,0.6-0.4s0.3-0.4,0.4-0.7s0.1-0.6,0.1-1V539z"/>
	<path d="M166.4,550.9c-0.3,0.4-0.7,0.6-1.1,0.8s-1,0.3-1.6,0.3c-0.5,0-0.9-0.1-1.3-0.2c-0.4-0.1-0.7-0.3-1-0.6
		c-0.3-0.3-0.5-0.7-0.6-1.1c-0.2-0.4-0.2-1-0.2-1.6v-6.2h2.1v6.2c0,0.3,0,0.6,0.1,0.9s0.2,0.4,0.3,0.5s0.3,0.2,0.5,0.3
		c0.2,0.1,0.4,0.1,0.6,0.1c0.6,0,1-0.1,1.3-0.3s0.6-0.5,0.8-0.8v-6.8h2.1v9.5h-2L166.4,550.9z"/>
	<path d="M176,549.2c0-0.2,0-0.3-0.1-0.4c0-0.1-0.1-0.3-0.3-0.4c-0.1-0.1-0.4-0.2-0.6-0.3s-0.6-0.2-1-0.3c-0.5-0.1-1-0.2-1.4-0.4
		s-0.8-0.3-1.1-0.6c-0.3-0.2-0.5-0.5-0.7-0.8s-0.3-0.7-0.3-1.1c0-0.4,0.1-0.8,0.3-1.1c0.2-0.3,0.4-0.7,0.7-0.9s0.7-0.5,1.2-0.6
		c0.5-0.2,1-0.2,1.5-0.2c0.6,0,1.1,0.1,1.6,0.2c0.5,0.2,0.9,0.4,1.2,0.6c0.3,0.3,0.6,0.6,0.8,1s0.3,0.8,0.3,1.2h-2.1
		c0-0.2,0-0.4-0.1-0.5c-0.1-0.2-0.2-0.3-0.3-0.5s-0.3-0.2-0.5-0.3c-0.2-0.1-0.4-0.1-0.7-0.1c-0.3,0-0.5,0-0.7,0.1s-0.4,0.2-0.5,0.3
		s-0.2,0.2-0.3,0.4c-0.1,0.1-0.1,0.3-0.1,0.5s0,0.3,0.1,0.4s0.2,0.2,0.3,0.3s0.4,0.2,0.6,0.3s0.6,0.2,0.9,0.3c0.6,0.1,1,0.3,1.5,0.4
		s0.8,0.4,1.1,0.6s0.5,0.5,0.7,0.8s0.2,0.7,0.2,1.1c0,0.4-0.1,0.8-0.3,1.2s-0.4,0.7-0.8,0.9c-0.3,0.3-0.7,0.5-1.2,0.6
		s-1,0.2-1.6,0.2c-0.7,0-1.2-0.1-1.7-0.3c-0.5-0.2-0.9-0.4-1.3-0.7s-0.6-0.6-0.8-1c-0.2-0.4-0.3-0.8-0.3-1.2h2.1
		c0,0.3,0.1,0.5,0.2,0.7s0.3,0.4,0.4,0.5s0.4,0.2,0.6,0.3c0.2,0.1,0.5,0.1,0.7,0.1c0.6,0,1-0.1,1.3-0.3S176,549.6,176,549.2z"/>
	<path d="M182.6,540v2.3h1.7v1.6h-1.7v5.3c0,0.2,0,0.4,0.1,0.5s0.1,0.2,0.2,0.3s0.2,0.1,0.3,0.1c0.1,0,0.3,0,0.4,0s0.3,0,0.4,0
		s0.2,0,0.3-0.1v1.7c-0.2,0-0.4,0.1-0.6,0.1c-0.2,0-0.5,0.1-0.8,0.1c-0.4,0-0.7,0-1-0.1s-0.6-0.2-0.8-0.5s-0.4-0.5-0.5-0.8
		s-0.2-0.8-0.2-1.2v-5.4h-1.6v-1.6h1.6V540H182.6z"/>
	<path d="M195.8,549.2c0-0.2,0-0.3-0.1-0.4c0-0.1-0.1-0.3-0.3-0.4c-0.1-0.1-0.4-0.2-0.6-0.3s-0.6-0.2-1-0.3c-0.5-0.1-1-0.2-1.4-0.4
		s-0.8-0.3-1.1-0.6c-0.3-0.2-0.5-0.5-0.7-0.8s-0.3-0.7-0.3-1.1c0-0.4,0.1-0.8,0.3-1.1c0.2-0.3,0.4-0.7,0.7-0.9s0.7-0.5,1.2-0.6
		c0.5-0.2,1-0.2,1.5-0.2c0.6,0,1.1,0.1,1.6,0.2c0.5,0.2,0.9,0.4,1.2,0.6c0.3,0.3,0.6,0.6,0.8,1s0.3,0.8,0.3,1.2h-2.1
		c0-0.2,0-0.4-0.1-0.5c-0.1-0.2-0.2-0.3-0.3-0.5s-0.3-0.2-0.5-0.3c-0.2-0.1-0.4-0.1-0.7-0.1c-0.3,0-0.5,0-0.7,0.1s-0.4,0.2-0.5,0.3
		s-0.2,0.2-0.3,0.4c-0.1,0.1-0.1,0.3-0.1,0.5s0,0.3,0.1,0.4s0.2,0.2,0.3,0.3s0.4,0.2,0.6,0.3s0.6,0.2,0.9,0.3c0.6,0.1,1,0.3,1.5,0.4
		s0.8,0.4,1.1,0.6s0.5,0.5,0.7,0.8s0.2,0.7,0.2,1.1c0,0.4-0.1,0.8-0.3,1.2s-0.4,0.7-0.8,0.9c-0.3,0.3-0.7,0.5-1.2,0.6
		s-1,0.2-1.6,0.2c-0.7,0-1.2-0.1-1.7-0.3c-0.5-0.2-0.9-0.4-1.3-0.7s-0.6-0.6-0.8-1c-0.2-0.4-0.3-0.8-0.3-1.2h2.1
		c0,0.3,0.1,0.5,0.2,0.7s0.3,0.4,0.4,0.5s0.4,0.2,0.6,0.3c0.2,0.1,0.5,0.1,0.7,0.1c0.6,0,1-0.1,1.3-0.3S195.8,549.6,195.8,549.2z"/>
	<path d="M203.9,552c-0.7,0-1.3-0.1-1.9-0.4s-1-0.6-1.4-1s-0.7-0.9-0.9-1.5s-0.3-1.2-0.3-1.8v-0.4c0-0.8,0.1-1.4,0.3-2
		c0.2-0.6,0.5-1.1,0.9-1.5s0.8-0.8,1.4-1s1.1-0.3,1.7-0.3c0.7,0,1.3,0.1,1.8,0.3s0.9,0.6,1.3,1s0.6,0.9,0.7,1.5s0.2,1.2,0.2,1.9v0.9
		h-6.2c0,0.4,0.1,0.7,0.2,1s0.3,0.6,0.5,0.8s0.5,0.4,0.8,0.5s0.6,0.2,1,0.2c0.5,0,1-0.1,1.4-0.3s0.7-0.5,1-0.9l1.2,1.1
		c-0.2,0.2-0.3,0.5-0.6,0.7s-0.5,0.4-0.8,0.6c-0.3,0.2-0.6,0.3-1,0.4C204.8,552,204.4,552,203.9,552z M203.7,543.9
		c-0.6,0-1.1,0.2-1.4,0.6s-0.6,1-0.7,1.7h4.1V546c0-0.3-0.1-0.6-0.1-0.8s-0.2-0.5-0.3-0.7c-0.2-0.2-0.4-0.4-0.6-0.5
		S204,543.9,203.7,543.9z"/>
	<path d="M215.1,551.8c-0.1-0.1-0.1-0.2-0.1-0.4s-0.1-0.3-0.1-0.5c-0.1,0.1-0.3,0.3-0.5,0.4s-0.4,0.2-0.6,0.3
		c-0.2,0.1-0.4,0.2-0.7,0.2s-0.5,0.1-0.8,0.1c-0.5,0-0.9-0.1-1.3-0.2c-0.4-0.1-0.7-0.3-1-0.6c-0.3-0.3-0.5-0.6-0.7-0.9
		s-0.2-0.7-0.2-1.1c0-0.5,0.1-1,0.3-1.4s0.5-0.7,0.8-1s0.8-0.5,1.4-0.6c0.5-0.1,1.1-0.2,1.8-0.2h1.3v-0.6c0-0.5-0.1-0.9-0.4-1.2
		s-0.7-0.4-1.3-0.4c-0.3,0-0.5,0-0.7,0.1c-0.2,0.1-0.4,0.2-0.5,0.3c-0.1,0.1-0.3,0.3-0.3,0.4s-0.1,0.3-0.1,0.5h-2.1
		c0-0.4,0.1-0.7,0.3-1.1c0.2-0.3,0.4-0.7,0.8-0.9c0.3-0.3,0.8-0.5,1.2-0.7s1-0.2,1.6-0.2c0.5,0,1,0.1,1.5,0.2s0.8,0.3,1.2,0.6
		c0.3,0.3,0.6,0.6,0.8,1s0.3,0.9,0.3,1.4v4.2c0,0.9,0.1,1.5,0.4,2v0.1H215.1z M212.7,550.3c0.2,0,0.5,0,0.7-0.1s0.4-0.1,0.6-0.3
		s0.3-0.2,0.5-0.4s0.2-0.3,0.3-0.4v-1.8h-1.2c-0.8,0-1.4,0.1-1.8,0.4s-0.6,0.7-0.6,1.2c0,0.2,0,0.4,0.1,0.5s0.2,0.3,0.3,0.4
		s0.3,0.2,0.5,0.3S212.5,550.3,212.7,550.3z"/>
	<path d="M224.1,544.3c-0.1,0-0.3,0-0.4-0.1s-0.3,0-0.4,0c-0.5,0-0.9,0.1-1.3,0.3s-0.6,0.5-0.7,0.8v6.5h-2.1v-9.5h2l0.1,1.1
		c0.2-0.4,0.5-0.7,0.9-0.9c0.4-0.2,0.8-0.3,1.3-0.3c0.1,0,0.3,0,0.4,0c0.2,0,0.3,0.1,0.3,0.1L224.1,544.3z"/>
	<path d="M229.2,550.3c0.3,0,0.5,0,0.7-0.1c0.2-0.1,0.4-0.2,0.6-0.3c0.2-0.1,0.3-0.3,0.4-0.5s0.2-0.4,0.2-0.7h2
		c0,0.5-0.1,0.9-0.3,1.3s-0.5,0.8-0.8,1.1s-0.8,0.5-1.2,0.7c-0.5,0.2-1,0.3-1.5,0.3c-0.7,0-1.4-0.1-1.9-0.4s-1-0.6-1.4-1
		s-0.6-0.9-0.8-1.5s-0.3-1.2-0.3-1.8v-0.3c0-0.7,0.1-1.3,0.3-1.8s0.4-1.1,0.8-1.5c0.4-0.4,0.8-0.8,1.3-1s1.2-0.4,1.9-0.4
		c0.6,0,1.1,0.1,1.6,0.3s0.9,0.4,1.2,0.7s0.6,0.7,0.8,1.1s0.3,0.9,0.3,1.5h-2c0-0.3-0.1-0.5-0.2-0.7s-0.2-0.4-0.4-0.6
		s-0.4-0.3-0.6-0.4s-0.5-0.1-0.8-0.1c-0.4,0-0.8,0.1-1.1,0.3s-0.5,0.4-0.7,0.7s-0.3,0.6-0.3,1s-0.1,0.7-0.1,1.1v0.3
		c0,0.4,0,0.8,0.1,1.1s0.2,0.7,0.3,1s0.4,0.5,0.7,0.7S228.7,550.3,229.2,550.3z"/>
	<path d="M236.8,543.4c0.3-0.4,0.7-0.7,1.2-0.9c0.4-0.2,0.9-0.3,1.5-0.3c0.5,0,0.9,0.1,1.3,0.2s0.7,0.3,1,0.6
		c0.3,0.3,0.5,0.7,0.6,1.1c0.1,0.5,0.2,1,0.2,1.6v6.1h-2.1v-6.1c0-0.7-0.1-1.1-0.4-1.4c-0.3-0.3-0.7-0.4-1.3-0.4
		c-0.4,0-0.8,0.1-1.1,0.3s-0.6,0.5-0.8,0.8v6.8h-2.1v-13.5h2.1V543.4z"/>
	<path d="M254.9,551.8c-0.1-0.1-0.1-0.2-0.1-0.4s-0.1-0.3-0.1-0.5c-0.1,0.1-0.3,0.3-0.5,0.4s-0.4,0.2-0.6,0.3
		c-0.2,0.1-0.4,0.2-0.7,0.2s-0.5,0.1-0.8,0.1c-0.5,0-0.9-0.1-1.3-0.2c-0.4-0.1-0.7-0.3-1-0.6c-0.3-0.3-0.5-0.6-0.7-0.9
		s-0.2-0.7-0.2-1.1c0-0.5,0.1-1,0.3-1.4s0.5-0.7,0.8-1s0.8-0.5,1.4-0.6c0.5-0.1,1.1-0.2,1.8-0.2h1.3v-0.6c0-0.5-0.1-0.9-0.4-1.2
		s-0.7-0.4-1.3-0.4c-0.3,0-0.5,0-0.7,0.1c-0.2,0.1-0.4,0.2-0.5,0.3c-0.1,0.1-0.3,0.3-0.3,0.4s-0.1,0.3-0.1,0.5h-2.1
		c0-0.4,0.1-0.7,0.3-1.1c0.2-0.3,0.4-0.7,0.8-0.9c0.3-0.3,0.8-0.5,1.2-0.7s1-0.2,1.6-0.2c0.5,0,1,0.1,1.5,0.2s0.8,0.3,1.2,0.6
		c0.3,0.3,0.6,0.6,0.8,1s0.3,0.9,0.3,1.4v4.2c0,0.9,0.1,1.5,0.4,2v0.1H254.9z M252.5,550.3c0.2,0,0.5,0,0.7-0.1s0.4-0.1,0.6-0.3
		s0.3-0.2,0.5-0.4s0.2-0.3,0.3-0.4v-1.8h-1.2c-0.8,0-1.4,0.1-1.8,0.4s-0.6,0.7-0.6,1.2c0,0.2,0,0.4,0.1,0.5s0.2,0.3,0.3,0.4
		s0.3,0.2,0.5,0.3S252.3,550.3,252.5,550.3z"/>
	<path d="M265.4,542.3l0.1,1c0.3-0.4,0.7-0.7,1.2-0.9s1-0.3,1.6-0.3c0.6,0,1.1,0.1,1.6,0.3s0.8,0.6,1.1,1.1c0.3-0.4,0.7-0.8,1.2-1.1
		s1.1-0.4,1.7-0.4c0.5,0,0.9,0.1,1.3,0.2c0.4,0.1,0.7,0.3,1,0.6s0.5,0.6,0.6,1.1s0.2,1,0.2,1.6v6.2h-2.1v-6.2c0-0.4,0-0.6-0.1-0.9
		s-0.2-0.4-0.3-0.5s-0.3-0.2-0.5-0.3s-0.4-0.1-0.7-0.1c-0.5,0-0.9,0.1-1.2,0.4s-0.5,0.6-0.6,1c0,0,0,0.1,0,0.1c0,0,0,0.1,0,0.1v6.3
		h-2.1v-6.1c0-0.3,0-0.6-0.1-0.8s-0.2-0.4-0.3-0.6s-0.3-0.2-0.5-0.3c-0.2-0.1-0.4-0.1-0.7-0.1c-0.5,0-0.8,0.1-1.1,0.3
		s-0.5,0.4-0.7,0.8v6.9h-2.1v-9.5H265.4z"/>
	<path d="M278.7,547c0-0.7,0.1-1.3,0.3-1.9c0.2-0.6,0.5-1.1,0.9-1.5s0.8-0.8,1.4-1s1.2-0.4,1.9-0.4c0.7,0,1.3,0.1,1.9,0.4
		s1,0.6,1.4,1s0.7,0.9,0.9,1.5c0.2,0.6,0.3,1.2,0.3,1.9v0.2c0,0.7-0.1,1.3-0.3,1.9s-0.5,1.1-0.9,1.5c-0.4,0.4-0.8,0.8-1.4,1
		c-0.5,0.2-1.2,0.4-1.9,0.4c-0.7,0-1.3-0.1-1.9-0.4c-0.5-0.2-1-0.6-1.4-1c-0.4-0.4-0.7-0.9-0.9-1.5s-0.3-1.2-0.3-1.9V547z
		 M280.8,547.2c0,0.4,0,0.8,0.1,1.2s0.2,0.7,0.4,1s0.4,0.5,0.7,0.7s0.6,0.2,1,0.2c0.4,0,0.7-0.1,1-0.2s0.5-0.4,0.7-0.7
		s0.3-0.6,0.4-1s0.1-0.8,0.1-1.2V547c0-0.4,0-0.8-0.1-1.2c-0.1-0.4-0.2-0.7-0.4-1s-0.4-0.5-0.7-0.7s-0.6-0.3-1-0.3s-0.7,0.1-1,0.3
		s-0.5,0.4-0.7,0.7s-0.3,0.6-0.4,1c-0.1,0.4-0.1,0.8-0.1,1.2V547.2z"/>
	<path d="M292.5,549.1l2-6.8h2.2l-3.3,9.5h-1.9l-3.3-9.5h2.2L292.5,549.1z"/>
	<path d="M298.1,539.9c0-0.3,0.1-0.6,0.3-0.8s0.5-0.3,0.9-0.3s0.7,0.1,0.9,0.3s0.3,0.5,0.3,0.8c0,0.3-0.1,0.6-0.3,0.8
		c-0.2,0.2-0.5,0.3-0.9,0.3s-0.7-0.1-0.9-0.3C298.2,540.4,298.1,540.2,298.1,539.9z M300.4,551.8h-2.1v-9.5h2.1V551.8z"/>
	<path d="M306.9,552c-0.7,0-1.3-0.1-1.9-0.4s-1-0.6-1.4-1s-0.7-0.9-0.9-1.5s-0.3-1.2-0.3-1.8v-0.4c0-0.8,0.1-1.4,0.3-2
		c0.2-0.6,0.5-1.1,0.9-1.5s0.8-0.8,1.4-1s1.1-0.3,1.7-0.3c0.7,0,1.3,0.1,1.8,0.3s0.9,0.6,1.3,1s0.6,0.9,0.7,1.5s0.2,1.2,0.2,1.9v0.9
		h-6.2c0,0.4,0.1,0.7,0.2,1s0.3,0.6,0.5,0.8s0.5,0.4,0.8,0.5s0.6,0.2,1,0.2c0.5,0,1-0.1,1.4-0.3s0.7-0.5,1-0.9l1.2,1.1
		c-0.2,0.2-0.3,0.5-0.6,0.7s-0.5,0.4-0.8,0.6c-0.3,0.2-0.6,0.3-1,0.4C307.8,552,307.3,552,306.9,552z M306.6,543.9
		c-0.6,0-1.1,0.2-1.4,0.6s-0.6,1-0.7,1.7h4.1V546c0-0.3-0.1-0.6-0.1-0.8s-0.2-0.5-0.3-0.7c-0.2-0.2-0.3-0.4-0.6-0.5
		S307,543.9,306.6,543.9z"/>
	<path d="M314.3,551.3c0,0.3,0,0.6-0.1,0.9s-0.2,0.6-0.3,0.9c-0.1,0.3-0.3,0.6-0.5,0.9c-0.2,0.3-0.4,0.5-0.7,0.7l-1.2-0.7
		c0.1-0.2,0.2-0.4,0.4-0.6c0.1-0.2,0.2-0.4,0.3-0.6c0.1-0.2,0.1-0.4,0.2-0.7s0.1-0.5,0.1-0.8v-1.6h1.9L314.3,551.3z"/>
	<path d="M326.1,549.2c0-0.2,0-0.3-0.1-0.4c0-0.1-0.1-0.3-0.3-0.4c-0.1-0.1-0.4-0.2-0.6-0.3s-0.6-0.2-1-0.3c-0.5-0.1-1-0.2-1.4-0.4
		s-0.8-0.3-1.1-0.6c-0.3-0.2-0.5-0.5-0.7-0.8s-0.3-0.7-0.3-1.1c0-0.4,0.1-0.8,0.3-1.1c0.2-0.3,0.4-0.7,0.7-0.9s0.7-0.5,1.2-0.6
		c0.5-0.2,1-0.2,1.5-0.2c0.6,0,1.1,0.1,1.6,0.2c0.5,0.2,0.9,0.4,1.2,0.6c0.3,0.3,0.6,0.6,0.8,1s0.3,0.8,0.3,1.2H326
		c0-0.2,0-0.4-0.1-0.5c-0.1-0.2-0.2-0.3-0.3-0.5s-0.3-0.2-0.5-0.3c-0.2-0.1-0.5-0.1-0.7-0.1c-0.3,0-0.5,0-0.7,0.1s-0.4,0.2-0.5,0.3
		s-0.2,0.2-0.3,0.4c-0.1,0.1-0.1,0.3-0.1,0.5s0,0.3,0.1,0.4s0.2,0.2,0.3,0.3s0.3,0.2,0.6,0.3s0.6,0.2,0.9,0.3c0.6,0.1,1,0.3,1.5,0.4
		s0.8,0.4,1.1,0.6s0.5,0.5,0.7,0.8s0.2,0.7,0.2,1.1c0,0.4-0.1,0.8-0.3,1.2s-0.4,0.7-0.8,0.9c-0.3,0.3-0.7,0.5-1.2,0.6
		s-1,0.2-1.6,0.2c-0.7,0-1.2-0.1-1.7-0.3c-0.5-0.2-0.9-0.4-1.3-0.7s-0.6-0.6-0.8-1c-0.2-0.4-0.3-0.8-0.3-1.2h2.1
		c0,0.3,0.1,0.5,0.2,0.7s0.3,0.4,0.4,0.5s0.4,0.2,0.6,0.3c0.2,0.1,0.5,0.1,0.7,0.1c0.6,0,1-0.1,1.3-0.3S326.1,549.6,326.1,549.2z"/>
	<path d="M334.3,552c-0.7,0-1.3-0.1-1.9-0.4s-1-0.6-1.4-1s-0.7-0.9-0.9-1.5s-0.3-1.2-0.3-1.8v-0.4c0-0.8,0.1-1.4,0.3-2
		c0.2-0.6,0.5-1.1,0.9-1.5s0.8-0.8,1.4-1s1.1-0.3,1.7-0.3c0.7,0,1.3,0.1,1.8,0.3s0.9,0.6,1.3,1s0.6,0.9,0.7,1.5s0.2,1.2,0.2,1.9v0.9
		h-6.2c0,0.4,0.1,0.7,0.2,1s0.3,0.6,0.5,0.8s0.5,0.4,0.8,0.5s0.6,0.2,1,0.2c0.5,0,1-0.1,1.4-0.3s0.7-0.5,1-0.9l1.2,1.1
		c-0.2,0.2-0.3,0.5-0.6,0.7s-0.5,0.4-0.8,0.6c-0.3,0.2-0.6,0.3-1,0.4C335.2,552,334.7,552,334.3,552z M334,543.9
		c-0.6,0-1.1,0.2-1.4,0.6s-0.6,1-0.7,1.7h4.1V546c0-0.3-0.1-0.6-0.1-0.8s-0.2-0.5-0.3-0.7c-0.2-0.2-0.3-0.4-0.6-0.5
		S334.3,543.9,334,543.9z"/>
	<path d="M344.7,544.3c-0.1,0-0.3,0-0.4-0.1s-0.3,0-0.4,0c-0.5,0-0.9,0.1-1.3,0.3s-0.6,0.5-0.7,0.8v6.5h-2.1v-9.5h2l0.1,1.1
		c0.2-0.4,0.5-0.7,0.9-0.9c0.4-0.2,0.8-0.3,1.3-0.3c0.1,0,0.3,0,0.4,0c0.2,0,0.3,0.1,0.3,0.1L344.7,544.3z"/>
	<path d="M346.1,539.9c0-0.3,0.1-0.6,0.3-0.8s0.5-0.3,0.9-0.3s0.7,0.1,0.9,0.3s0.3,0.5,0.3,0.8c0,0.3-0.1,0.6-0.3,0.8
		c-0.2,0.2-0.5,0.3-0.9,0.3s-0.7-0.1-0.9-0.3C346.2,540.4,346.1,540.2,346.1,539.9z M348.3,551.8h-2.1v-9.5h2.1V551.8z"/>
	<path d="M354.8,552c-0.7,0-1.3-0.1-1.9-0.4s-1-0.6-1.4-1s-0.7-0.9-0.9-1.5s-0.3-1.2-0.3-1.8v-0.4c0-0.8,0.1-1.4,0.3-2
		c0.2-0.6,0.5-1.1,0.9-1.5s0.8-0.8,1.4-1s1.1-0.3,1.7-0.3c0.7,0,1.3,0.1,1.8,0.3s0.9,0.6,1.3,1s0.6,0.9,0.7,1.5s0.2,1.2,0.2,1.9v0.9
		h-6.2c0,0.4,0.1,0.7,0.2,1s0.3,0.6,0.5,0.8s0.5,0.4,0.8,0.5s0.6,0.2,1,0.2c0.5,0,1-0.1,1.4-0.3s0.7-0.5,1-0.9l1.2,1.1
		c-0.2,0.2-0.3,0.5-0.6,0.7s-0.5,0.4-0.8,0.6c-0.3,0.2-0.6,0.3-1,0.4C355.7,552,355.3,552,354.8,552z M354.6,543.9
		c-0.6,0-1.1,0.2-1.4,0.6s-0.6,1-0.7,1.7h4.1V546c0-0.3-0.1-0.6-0.1-0.8s-0.2-0.5-0.3-0.7c-0.2-0.2-0.3-0.4-0.6-0.5
		S354.9,543.9,354.6,543.9z"/>
	<path d="M365.6,549.2c0-0.2,0-0.3-0.1-0.4c0-0.1-0.1-0.3-0.3-0.4c-0.1-0.1-0.4-0.2-0.6-0.3s-0.6-0.2-1-0.3c-0.5-0.1-1-0.2-1.4-0.4
		s-0.8-0.3-1.1-0.6c-0.3-0.2-0.5-0.5-0.7-0.8s-0.3-0.7-0.3-1.1c0-0.4,0.1-0.8,0.3-1.1c0.2-0.3,0.4-0.7,0.7-0.9s0.7-0.5,1.2-0.6
		c0.5-0.2,1-0.2,1.5-0.2c0.6,0,1.1,0.1,1.6,0.2c0.5,0.2,0.9,0.4,1.2,0.6c0.3,0.3,0.6,0.6,0.8,1s0.3,0.8,0.3,1.2h-2.1
		c0-0.2,0-0.4-0.1-0.5c-0.1-0.2-0.2-0.3-0.3-0.5s-0.3-0.2-0.5-0.3c-0.2-0.1-0.5-0.1-0.7-0.1c-0.3,0-0.5,0-0.7,0.1s-0.4,0.2-0.5,0.3
		s-0.2,0.2-0.3,0.4c-0.1,0.1-0.1,0.3-0.1,0.5s0,0.3,0.1,0.4s0.2,0.2,0.3,0.3s0.3,0.2,0.6,0.3s0.6,0.2,0.9,0.3c0.6,0.1,1,0.3,1.5,0.4
		s0.8,0.4,1.1,0.6s0.5,0.5,0.7,0.8s0.2,0.7,0.2,1.1c0,0.4-0.1,0.8-0.3,1.2s-0.4,0.7-0.8,0.9c-0.3,0.3-0.7,0.5-1.2,0.6
		s-1,0.2-1.6,0.2c-0.7,0-1.2-0.1-1.7-0.3c-0.5-0.2-0.9-0.4-1.3-0.7s-0.6-0.6-0.8-1c-0.2-0.4-0.3-0.8-0.3-1.2h2.1
		c0,0.3,0.1,0.5,0.2,0.7s0.3,0.4,0.4,0.5s0.4,0.2,0.6,0.3c0.2,0.1,0.5,0.1,0.7,0.1c0.6,0,1-0.1,1.3-0.3S365.6,549.6,365.6,549.2z"/>
	<path d="M373.7,547c0-0.7,0.1-1.3,0.3-1.9c0.2-0.6,0.5-1.1,0.9-1.5s0.8-0.8,1.4-1s1.2-0.4,1.9-0.4c0.7,0,1.3,0.1,1.9,0.4
		s1,0.6,1.4,1s0.7,0.9,0.9,1.5c0.2,0.6,0.3,1.2,0.3,1.9v0.2c0,0.7-0.1,1.3-0.3,1.9s-0.5,1.1-0.9,1.5c-0.4,0.4-0.8,0.8-1.4,1
		c-0.5,0.2-1.2,0.4-1.9,0.4c-0.7,0-1.3-0.1-1.9-0.4c-0.5-0.2-1-0.6-1.4-1c-0.4-0.4-0.7-0.9-0.9-1.5s-0.3-1.2-0.3-1.9V547z
		 M375.8,547.2c0,0.4,0,0.8,0.1,1.2s0.2,0.7,0.4,1s0.4,0.5,0.7,0.7s0.6,0.2,1,0.2c0.4,0,0.7-0.1,1-0.2s0.5-0.4,0.7-0.7
		s0.3-0.6,0.4-1s0.1-0.8,0.1-1.2V547c0-0.4,0-0.8-0.1-1.2c-0.1-0.4-0.2-0.7-0.4-1s-0.4-0.5-0.7-0.7s-0.6-0.3-1-0.3s-0.7,0.1-1,0.3
		s-0.5,0.4-0.7,0.7s-0.3,0.6-0.4,1c-0.1,0.4-0.1,0.8-0.1,1.2V547.2z"/>
	<path d="M389.3,544.3c-0.1,0-0.3,0-0.4-0.1s-0.3,0-0.4,0c-0.5,0-0.9,0.1-1.3,0.3s-0.6,0.5-0.7,0.8v6.5h-2.1v-9.5h2l0.1,1.1
		c0.2-0.4,0.5-0.7,0.9-0.9c0.4-0.2,0.8-0.3,1.3-0.3c0.1,0,0.3,0,0.4,0c0.2,0,0.3,0.1,0.3,0.1L389.3,544.3z"/>
	<path d="M399.3,552c-0.7,0-1.3-0.1-1.9-0.4s-1-0.6-1.4-1s-0.7-0.9-0.9-1.5s-0.3-1.2-0.3-1.8v-0.4c0-0.8,0.1-1.4,0.3-2
		c0.2-0.6,0.5-1.1,0.9-1.5s0.8-0.8,1.4-1s1.1-0.3,1.7-0.3c0.7,0,1.3,0.1,1.8,0.3s0.9,0.6,1.3,1s0.6,0.9,0.7,1.5s0.2,1.2,0.2,1.9v0.9
		h-6.2c0,0.4,0.1,0.7,0.2,1s0.3,0.6,0.5,0.8s0.5,0.4,0.8,0.5s0.6,0.2,1,0.2c0.5,0,1-0.1,1.4-0.3s0.7-0.5,1-0.9l1.2,1.1
		c-0.2,0.2-0.3,0.5-0.6,0.7s-0.5,0.4-0.8,0.6c-0.3,0.2-0.6,0.3-1,0.4C400.2,552,399.8,552,399.3,552z M399.1,543.9
		c-0.6,0-1.1,0.2-1.4,0.6s-0.6,1-0.7,1.7h4.1V546c0-0.3-0.1-0.6-0.1-0.8s-0.2-0.5-0.3-0.7c-0.2-0.2-0.3-0.4-0.6-0.5
		S399.4,543.9,399.1,543.9z"/>
	<path d="M413.1,547.2c0,0.7-0.1,1.3-0.2,1.9s-0.4,1.1-0.7,1.5c-0.3,0.4-0.7,0.8-1.2,1c-0.5,0.2-1,0.4-1.6,0.4c-0.5,0-1-0.1-1.4-0.3
		s-0.8-0.4-1.1-0.8v4.5h-2.1v-13.2h2l0.1,1c0.3-0.4,0.7-0.7,1.1-0.8s0.9-0.3,1.5-0.3c0.6,0,1.1,0.1,1.6,0.4s0.9,0.6,1.2,1
		c0.3,0.4,0.6,0.9,0.7,1.5c0.2,0.6,0.2,1.3,0.2,2V547.2z M411,547c0-0.4,0-0.8-0.1-1.2s-0.2-0.7-0.4-1s-0.4-0.5-0.7-0.7
		c-0.3-0.2-0.6-0.2-1-0.2c-0.5,0-0.9,0.1-1.2,0.3s-0.5,0.5-0.7,0.8v4.2c0.2,0.3,0.4,0.6,0.7,0.8c0.3,0.2,0.7,0.3,1.2,0.3
		c0.4,0,0.7-0.1,1-0.3c0.3-0.2,0.5-0.4,0.7-0.7c0.2-0.3,0.3-0.6,0.4-1s0.1-0.8,0.1-1.2V547z"/>
	<path d="M414.9,539.9c0-0.3,0.1-0.6,0.3-0.8s0.5-0.3,0.9-0.3s0.7,0.1,0.9,0.3s0.3,0.5,0.3,0.8c0,0.3-0.1,0.6-0.3,0.8
		c-0.2,0.2-0.5,0.3-0.9,0.3s-0.7-0.1-0.9-0.3C415,540.4,414.9,540.2,414.9,539.9z M417.2,551.8h-2.1v-9.5h2.1V551.8z"/>
	<path d="M424.9,549.2c0-0.2,0-0.3-0.1-0.4c0-0.1-0.1-0.3-0.3-0.4c-0.1-0.1-0.4-0.2-0.6-0.3s-0.6-0.2-1-0.3c-0.5-0.1-1-0.2-1.4-0.4
		s-0.8-0.3-1.1-0.6c-0.3-0.2-0.5-0.5-0.7-0.8s-0.3-0.7-0.3-1.1c0-0.4,0.1-0.8,0.3-1.1c0.2-0.3,0.4-0.7,0.7-0.9s0.7-0.5,1.2-0.6
		c0.5-0.2,1-0.2,1.5-0.2c0.6,0,1.1,0.1,1.6,0.2c0.5,0.2,0.9,0.4,1.2,0.6c0.3,0.3,0.6,0.6,0.8,1s0.3,0.8,0.3,1.2h-2.1
		c0-0.2,0-0.4-0.1-0.5c-0.1-0.2-0.2-0.3-0.3-0.5s-0.3-0.2-0.5-0.3c-0.2-0.1-0.5-0.1-0.7-0.1c-0.3,0-0.5,0-0.7,0.1s-0.4,0.2-0.5,0.3
		s-0.2,0.2-0.3,0.4c-0.1,0.1-0.1,0.3-0.1,0.5s0,0.3,0.1,0.4s0.2,0.2,0.3,0.3s0.3,0.2,0.6,0.3s0.6,0.2,0.9,0.3c0.6,0.1,1,0.3,1.5,0.4
		s0.8,0.4,1.1,0.6s0.5,0.5,0.7,0.8s0.2,0.7,0.2,1.1c0,0.4-0.1,0.8-0.3,1.2s-0.4,0.7-0.8,0.9c-0.3,0.3-0.7,0.5-1.2,0.6
		s-1,0.2-1.6,0.2c-0.7,0-1.2-0.1-1.7-0.3c-0.5-0.2-0.9-0.4-1.3-0.7s-0.6-0.6-0.8-1c-0.2-0.4-0.3-0.8-0.3-1.2h2.1
		c0,0.3,0.1,0.5,0.2,0.7s0.3,0.4,0.4,0.5s0.4,0.2,0.6,0.3c0.2,0.1,0.5,0.1,0.7,0.1c0.6,0,1-0.1,1.3-0.3S424.9,549.6,424.9,549.2z"/>
	<path d="M428.4,547c0-0.7,0.1-1.3,0.3-1.9c0.2-0.6,0.5-1.1,0.9-1.5s0.8-0.8,1.4-1s1.2-0.4,1.9-0.4c0.7,0,1.3,0.1,1.9,0.4
		s1,0.6,1.4,1s0.7,0.9,0.9,1.5c0.2,0.6,0.3,1.2,0.3,1.9v0.2c0,0.7-0.1,1.3-0.3,1.9s-0.5,1.1-0.9,1.5c-0.4,0.4-0.8,0.8-1.4,1
		c-0.5,0.2-1.2,0.4-1.9,0.4c-0.7,0-1.3-0.1-1.9-0.4c-0.5-0.2-1-0.6-1.4-1c-0.4-0.4-0.7-0.9-0.9-1.5s-0.3-1.2-0.3-1.9V547z
		 M430.6,547.2c0,0.4,0,0.8,0.1,1.2s0.2,0.7,0.4,1s0.4,0.5,0.7,0.7s0.6,0.2,1,0.2c0.4,0,0.7-0.1,1-0.2s0.5-0.4,0.7-0.7
		s0.3-0.6,0.4-1s0.1-0.8,0.1-1.2V547c0-0.4,0-0.8-0.1-1.2c-0.1-0.4-0.2-0.7-0.4-1s-0.4-0.5-0.7-0.7s-0.6-0.3-1-0.3s-0.7,0.1-1,0.3
		s-0.5,0.4-0.7,0.7s-0.3,0.6-0.4,1c-0.1,0.4-0.1,0.8-0.1,1.2V547.2z"/>
	<path d="M438.7,547c0-0.7,0.1-1.4,0.3-2s0.4-1.1,0.7-1.5s0.7-0.8,1.2-1s1-0.4,1.6-0.4c0.5,0,1,0.1,1.4,0.3s0.8,0.4,1,0.8v-4.9h2.1
		v13.5h-1.9l-0.1-1c-0.3,0.4-0.7,0.7-1.1,0.9c-0.4,0.2-0.9,0.3-1.5,0.3c-0.6,0-1.1-0.1-1.6-0.4c-0.5-0.2-0.9-0.6-1.2-1
		s-0.6-0.9-0.7-1.5c-0.2-0.6-0.3-1.2-0.3-1.9V547z M440.8,547.2c0,0.4,0,0.8,0.1,1.2s0.2,0.7,0.4,1s0.4,0.5,0.7,0.7
		c0.3,0.2,0.6,0.2,1,0.2c0.5,0,0.9-0.1,1.2-0.3s0.6-0.5,0.7-0.8V545c-0.2-0.4-0.4-0.6-0.7-0.8s-0.7-0.3-1.2-0.3
		c-0.4,0-0.7,0.1-1,0.2s-0.5,0.4-0.7,0.7s-0.3,0.6-0.4,1c-0.1,0.4-0.1,0.8-0.1,1.2V547.2z"/>
	<path d="M453.4,552c-0.7,0-1.3-0.1-1.9-0.4s-1-0.6-1.4-1s-0.7-0.9-0.9-1.5s-0.3-1.2-0.3-1.8v-0.4c0-0.8,0.1-1.4,0.3-2
		c0.2-0.6,0.5-1.1,0.9-1.5s0.8-0.8,1.4-1s1.1-0.3,1.7-0.3c0.7,0,1.3,0.1,1.8,0.3s0.9,0.6,1.3,1s0.6,0.9,0.7,1.5s0.2,1.2,0.2,1.9v0.9
		H451c0,0.4,0.1,0.7,0.2,1s0.3,0.6,0.5,0.8s0.5,0.4,0.8,0.5s0.6,0.2,1,0.2c0.5,0,1-0.1,1.4-0.3s0.7-0.5,1-0.9l1.2,1.1
		c-0.2,0.2-0.3,0.5-0.6,0.7s-0.5,0.4-0.8,0.6c-0.3,0.2-0.6,0.3-1,0.4C454.3,552,453.9,552,453.4,552z M453.2,543.9
		c-0.6,0-1.1,0.2-1.4,0.6s-0.6,1-0.7,1.7h4.1V546c0-0.3-0.1-0.6-0.1-0.8s-0.2-0.5-0.3-0.7c-0.2-0.2-0.3-0.4-0.6-0.5
		S453.5,543.9,453.2,543.9z"/>
	<path d="M464.2,549.2c0-0.2,0-0.3-0.1-0.4c0-0.1-0.1-0.3-0.3-0.4c-0.1-0.1-0.4-0.2-0.6-0.3s-0.6-0.2-1-0.3c-0.5-0.1-1-0.2-1.4-0.4
		s-0.8-0.3-1.1-0.6c-0.3-0.2-0.5-0.5-0.7-0.8s-0.3-0.7-0.3-1.1c0-0.4,0.1-0.8,0.3-1.1c0.2-0.3,0.4-0.7,0.7-0.9s0.7-0.5,1.2-0.6
		c0.5-0.2,1-0.2,1.5-0.2c0.6,0,1.1,0.1,1.6,0.2c0.5,0.2,0.9,0.4,1.2,0.6c0.3,0.3,0.6,0.6,0.8,1s0.3,0.8,0.3,1.2h-2.1
		c0-0.2,0-0.4-0.1-0.5c-0.1-0.2-0.2-0.3-0.3-0.5s-0.3-0.2-0.5-0.3c-0.2-0.1-0.5-0.1-0.7-0.1c-0.3,0-0.5,0-0.7,0.1s-0.4,0.2-0.5,0.3
		s-0.2,0.2-0.3,0.4c-0.1,0.1-0.1,0.3-0.1,0.5s0,0.3,0.1,0.4s0.2,0.2,0.3,0.3s0.3,0.2,0.6,0.3s0.6,0.2,0.9,0.3c0.6,0.1,1,0.3,1.5,0.4
		s0.8,0.4,1.1,0.6s0.5,0.5,0.7,0.8s0.2,0.7,0.2,1.1c0,0.4-0.1,0.8-0.3,1.2s-0.4,0.7-0.8,0.9c-0.3,0.3-0.7,0.5-1.2,0.6
		s-1,0.2-1.6,0.2c-0.7,0-1.2-0.1-1.7-0.3c-0.5-0.2-0.9-0.4-1.3-0.7s-0.6-0.6-0.8-1c-0.2-0.4-0.3-0.8-0.3-1.2h2.1
		c0,0.3,0.1,0.5,0.2,0.7s0.3,0.4,0.4,0.5s0.4,0.2,0.6,0.3c0.2,0.1,0.5,0.1,0.7,0.1c0.6,0,1-0.1,1.3-0.3S464.2,549.6,464.2,549.2z"/>
	<path d="M247.2,568.8c0,0.7-0.1,1.4-0.2,1.9s-0.4,1.1-0.7,1.5s-0.7,0.8-1.2,1s-1,0.4-1.6,0.4c-0.6,0-1.1-0.1-1.5-0.3
		c-0.4-0.2-0.8-0.5-1.1-0.9l-0.1,1h-1.9v-13.5h2.1v4.9c0.3-0.4,0.7-0.6,1.1-0.8s0.9-0.3,1.4-0.3c0.6,0,1.2,0.1,1.6,0.4
		c0.5,0.2,0.9,0.6,1.2,1s0.5,0.9,0.7,1.5c0.2,0.6,0.2,1.2,0.2,2V568.8z M245,568.6c0-0.4,0-0.8-0.1-1.2s-0.2-0.7-0.3-1
		s-0.4-0.5-0.7-0.7c-0.3-0.2-0.6-0.3-1-0.3c-0.5,0-0.9,0.1-1.2,0.3c-0.3,0.2-0.6,0.5-0.7,0.9v3.9c0.2,0.4,0.4,0.7,0.7,0.9
		s0.7,0.3,1.2,0.3c0.4,0,0.7-0.1,1-0.2c0.3-0.2,0.5-0.4,0.7-0.7s0.3-0.6,0.4-1s0.1-0.8,0.1-1.2V568.6z"/>
	<path d="M252.2,570.4l1.9-6.5h2.3l-3.8,11c-0.1,0.2-0.2,0.5-0.3,0.8s-0.3,0.5-0.6,0.8s-0.5,0.4-0.8,0.6c-0.3,0.2-0.7,0.2-1.2,0.2
		c-0.2,0-0.4,0-0.5,0c-0.2,0-0.3-0.1-0.5-0.1v-1.7c0.1,0,0.1,0,0.2,0c0.1,0,0.2,0,0.2,0c0.3,0,0.5,0,0.7-0.1c0.2,0,0.4-0.1,0.5-0.2
		c0.1-0.1,0.3-0.2,0.4-0.4s0.2-0.4,0.3-0.6l0.3-0.8l-3.3-9.5h2.3L252.2,570.4z"/>
	<path d="M272.5,567.4c0,1-0.1,1.8-0.4,2.6s-0.6,1.4-1.1,2c-0.5,0.5-1,0.9-1.7,1.2s-1.4,0.4-2.2,0.4c-0.8,0-1.5-0.1-2.2-0.4
		s-1.2-0.7-1.7-1.2c-0.5-0.5-0.8-1.2-1.1-2s-0.4-1.6-0.4-2.6v-0.7c0-1,0.1-1.8,0.4-2.6s0.6-1.4,1.1-2s1-1,1.7-1.2s1.4-0.4,2.2-0.4
		c0.8,0,1.5,0.1,2.2,0.4s1.2,0.7,1.7,1.2s0.8,1.2,1.1,2s0.4,1.6,0.4,2.6V567.4z M270.3,566.7c0-0.7-0.1-1.3-0.2-1.9
		c-0.1-0.5-0.3-1-0.6-1.4s-0.6-0.6-1-0.8c-0.4-0.2-0.8-0.3-1.3-0.3c-0.5,0-0.9,0.1-1.3,0.3c-0.4,0.2-0.7,0.5-1,0.8s-0.5,0.8-0.6,1.4
		c-0.1,0.5-0.2,1.2-0.2,1.9v0.7c0,0.7,0.1,1.3,0.2,1.9s0.4,1,0.6,1.4s0.6,0.7,1,0.8s0.8,0.3,1.3,0.3c1,0,1.7-0.4,2.3-1.1
		s0.8-1.8,0.8-3.3V566.7z"/>
	<path d="M284.9,573.4h-2.2l-5.7-9.1v9.1h-2.2v-12.8h2.2l5.7,9.1v-9.1h2.2V573.4z"/>
	<path d="M295,567.7h-5.3v3.9h6.1v1.8h-8.4v-12.8h8.3v1.8h-6.1v3.5h5.3V567.7z"/>
	<path d="M310.3,570.5l1.5-6.6h2.1l-2.6,9.5h-1.8l-2-6.5l-2,6.5h-1.8l-2.6-9.5h2.1l1.5,6.5l2-6.5h1.6L310.3,570.5z"/>
	<path d="M315,568.6c0-0.7,0.1-1.3,0.3-1.9c0.2-0.6,0.5-1.1,0.9-1.5s0.8-0.8,1.4-1s1.2-0.4,1.9-0.4c0.7,0,1.3,0.1,1.9,0.4
		s1,0.6,1.4,1s0.7,0.9,0.9,1.5c0.2,0.6,0.3,1.2,0.3,1.9v0.2c0,0.7-0.1,1.3-0.3,1.9s-0.5,1.1-0.9,1.5c-0.4,0.4-0.8,0.8-1.4,1
		c-0.5,0.2-1.2,0.4-1.9,0.4c-0.7,0-1.3-0.1-1.9-0.4c-0.5-0.2-1-0.6-1.4-1c-0.4-0.4-0.7-0.9-0.9-1.5s-0.3-1.2-0.3-1.9V568.6z
		 M317.1,568.8c0,0.4,0,0.8,0.1,1.2s0.2,0.7,0.4,1s0.4,0.5,0.7,0.7s0.6,0.2,1,0.2c0.4,0,0.7-0.1,1-0.2s0.5-0.4,0.7-0.7
		s0.3-0.6,0.4-1s0.1-0.8,0.1-1.2v-0.2c0-0.4,0-0.8-0.1-1.2c-0.1-0.4-0.2-0.7-0.4-1s-0.4-0.5-0.7-0.7s-0.6-0.3-1-0.3s-0.7,0.1-1,0.3
		s-0.5,0.4-0.7,0.7s-0.3,0.6-0.4,1c-0.1,0.4-0.1,0.8-0.1,1.2V568.8z"/>
	<path d="M330.6,565.9c-0.1,0-0.3,0-0.4-0.1s-0.3,0-0.4,0c-0.5,0-0.9,0.1-1.3,0.3s-0.6,0.5-0.7,0.8v6.5h-2.1v-9.5h2l0.1,1.1
		c0.2-0.4,0.5-0.7,0.9-0.9c0.4-0.2,0.8-0.3,1.3-0.3c0.1,0,0.3,0,0.4,0c0.2,0,0.3,0.1,0.3,0.1L330.6,565.9z"/>
	<path d="M331.4,568.6c0-0.7,0.1-1.4,0.3-2s0.4-1.1,0.7-1.5s0.7-0.8,1.2-1s1-0.4,1.6-0.4c0.5,0,1,0.1,1.4,0.3s0.8,0.4,1,0.8v-4.9
		h2.1v13.5h-1.9l-0.1-1c-0.3,0.4-0.7,0.7-1.1,0.9c-0.4,0.2-0.9,0.3-1.5,0.3c-0.6,0-1.1-0.1-1.6-0.4c-0.5-0.2-0.9-0.6-1.2-1
		s-0.6-0.9-0.7-1.5c-0.2-0.6-0.3-1.2-0.3-1.9V568.6z M333.5,568.8c0,0.4,0,0.8,0.1,1.2s0.2,0.7,0.4,1s0.4,0.5,0.7,0.7
		c0.3,0.2,0.6,0.2,1,0.2c0.5,0,0.9-0.1,1.2-0.3s0.6-0.5,0.7-0.8v-4.1c-0.2-0.4-0.4-0.6-0.7-0.8s-0.7-0.3-1.2-0.3
		c-0.4,0-0.7,0.1-1,0.2s-0.5,0.4-0.7,0.7s-0.3,0.6-0.4,1c-0.1,0.4-0.1,0.8-0.1,1.2V568.8z"/>
	<path d="M346,568.6c0-0.7,0.1-1.3,0.3-1.9c0.2-0.6,0.5-1.1,0.9-1.5s0.8-0.8,1.4-1s1.2-0.4,1.9-0.4c0.7,0,1.3,0.1,1.9,0.4
		s1,0.6,1.4,1s0.7,0.9,0.9,1.5c0.2,0.6,0.3,1.2,0.3,1.9v0.2c0,0.7-0.1,1.3-0.3,1.9s-0.5,1.1-0.9,1.5c-0.4,0.4-0.8,0.8-1.4,1
		c-0.5,0.2-1.2,0.4-1.9,0.4c-0.7,0-1.3-0.1-1.9-0.4c-0.5-0.2-1-0.6-1.4-1c-0.4-0.4-0.7-0.9-0.9-1.5s-0.3-1.2-0.3-1.9V568.6z
		 M348.1,568.8c0,0.4,0,0.8,0.1,1.2s0.2,0.7,0.4,1s0.4,0.5,0.7,0.7s0.6,0.2,1,0.2c0.4,0,0.7-0.1,1-0.2s0.5-0.4,0.7-0.7
		s0.3-0.6,0.4-1s0.1-0.8,0.1-1.2v-0.2c0-0.4,0-0.8-0.1-1.2c-0.1-0.4-0.2-0.7-0.4-1s-0.4-0.5-0.7-0.7s-0.6-0.3-1-0.3s-0.7,0.1-1,0.3
		s-0.5,0.4-0.7,0.7s-0.3,0.6-0.4,1c-0.1,0.4-0.1,0.8-0.1,1.2V568.8z"/>
	<path d="M358.6,563.9l0.1,1.1c0.3-0.4,0.7-0.7,1.2-0.9s1-0.3,1.6-0.3c0.5,0,0.9,0.1,1.2,0.2s0.7,0.3,1,0.6s0.5,0.6,0.6,1.1
		s0.2,1,0.2,1.6v6.1h-2.1v-6.2c0-0.3,0-0.6-0.1-0.8c-0.1-0.2-0.2-0.4-0.3-0.5s-0.3-0.2-0.5-0.3c-0.2-0.1-0.4-0.1-0.7-0.1
		c-0.4,0-0.8,0.1-1.1,0.3s-0.6,0.5-0.8,0.9v6.8h-2.1v-9.5H358.6z"/>
	<path d="M368.9,573.4h-2.1v-13.5h2.1V573.4z"/>
	<path d="M374.6,570.4l1.9-6.5h2.3l-3.8,11c-0.1,0.2-0.2,0.5-0.3,0.8s-0.3,0.5-0.6,0.8s-0.5,0.4-0.8,0.6c-0.3,0.2-0.7,0.2-1.2,0.2
		c-0.2,0-0.4,0-0.5,0c-0.2,0-0.3-0.1-0.5-0.1v-1.7c0.1,0,0.1,0,0.2,0c0.1,0,0.2,0,0.2,0c0.3,0,0.5,0,0.7-0.1c0.2,0,0.4-0.1,0.5-0.2
		c0.1-0.1,0.3-0.2,0.4-0.4s0.2-0.4,0.3-0.6l0.3-0.8l-3.3-9.5h2.3L374.6,570.4z"/>
</g>
</svg>
